<svg width="146" height="39" viewBox="0 0 146 39" fill="none" xmlns="http://www.w3.org/2000/svg">
<path d="M87.5645 36.5869H84.835L91.6396 16.5156H94.3691L87.5645 36.5869ZM99.5742 21.2637L99.6885 22.7998C100.662 21.6064 101.978 21.0098 103.637 21.0098C105.406 21.0098 106.62 21.708 107.28 23.1045C108.245 21.708 109.62 21.0098 111.406 21.0098C112.896 21.0098 114.005 21.4456 114.732 22.3174C115.46 23.1807 115.824 24.484 115.824 26.2275V35H112.143V26.2402C112.143 25.4616 111.99 24.8945 111.686 24.5391C111.381 24.1751 110.843 23.9932 110.073 23.9932C108.973 23.9932 108.211 24.5179 107.788 25.5674L107.801 35H104.132V26.2529C104.132 25.4574 103.975 24.8818 103.662 24.5264C103.349 24.1709 102.816 23.9932 102.062 23.9932C101.021 23.9932 100.268 24.4248 99.8027 25.2881V35H96.1338V21.2637H99.5742ZM124.978 35.2539C122.963 35.2539 121.321 34.6361 120.052 33.4004C118.791 32.1647 118.16 30.5186 118.16 28.4619V28.1064C118.16 26.7269 118.427 25.4954 118.96 24.4121C119.493 23.3203 120.246 22.4824 121.22 21.8984C122.201 21.306 123.319 21.0098 124.571 21.0098C126.45 21.0098 127.927 21.6022 129.002 22.7871C130.085 23.972 130.627 25.652 130.627 27.8271V29.3252H121.88C121.998 30.2223 122.354 30.9417 122.946 31.4834C123.547 32.0251 124.305 32.2959 125.219 32.2959C126.632 32.2959 127.737 31.7839 128.532 30.7598L130.335 32.7783C129.785 33.557 129.04 34.1663 128.101 34.6064C127.161 35.0381 126.12 35.2539 124.978 35.2539ZM124.559 23.9805C123.831 23.9805 123.238 24.2259 122.781 24.7168C122.333 25.2077 122.045 25.9102 121.918 26.8242H127.021V26.5322C127.005 25.7197 126.785 25.0934 126.361 24.6533C125.938 24.2048 125.337 23.9805 124.559 23.9805ZM129.027 19.0547V19.207H126.107L124.152 17.3662L122.197 19.207H119.328V19.0039L123.086 15.5H125.219L129.027 19.0547ZM140.161 31.2041C140.161 30.7555 139.937 30.4043 139.488 30.1504C139.048 29.888 138.337 29.6553 137.355 29.4521C134.089 28.7666 132.455 27.3786 132.455 25.2881C132.455 24.0693 132.959 23.0537 133.966 22.2412C134.981 21.4202 136.306 21.0098 137.939 21.0098C139.683 21.0098 141.075 21.4202 142.116 22.2412C143.166 23.0622 143.69 24.1286 143.69 25.4404H140.021C140.021 24.9157 139.852 24.484 139.514 24.1455C139.175 23.7985 138.646 23.625 137.927 23.625C137.309 23.625 136.831 23.7646 136.492 24.0439C136.154 24.3232 135.984 24.6787 135.984 25.1104C135.984 25.5166 136.175 25.8467 136.556 26.1006C136.945 26.346 137.597 26.5618 138.511 26.748C139.425 26.9258 140.195 27.1289 140.821 27.3574C142.759 28.0684 143.729 29.2998 143.729 31.0518C143.729 32.3044 143.191 33.32 142.116 34.0986C141.041 34.8688 139.653 35.2539 137.952 35.2539C136.801 35.2539 135.777 35.0508 134.88 34.6445C133.991 34.2298 133.293 33.667 132.785 32.9561C132.277 32.2367 132.023 31.4622 132.023 30.6328H135.502C135.536 31.2845 135.777 31.7839 136.226 32.1309C136.674 32.4779 137.275 32.6514 138.028 32.6514C138.731 32.6514 139.26 32.5202 139.615 32.2578C139.979 31.987 140.161 31.6357 140.161 31.2041Z" fill="#293145"/>
<path d="M51.7822 37H27.417V32.166L38.916 19.9102C40.4948 18.1849 41.6585 16.6794 42.4072 15.3936C43.1722 14.1077 43.5547 12.887 43.5547 11.7314C43.5547 10.1527 43.1559 8.91569 42.3584 8.02051C41.5609 7.10905 40.4215 6.65332 38.9404 6.65332C37.3454 6.65332 36.084 7.20671 35.1562 8.31348C34.2448 9.40397 33.7891 10.8444 33.7891 12.6348H26.709C26.709 10.4701 27.2217 8.49251 28.2471 6.70215C29.2887 4.91178 30.7536 3.51204 32.6416 2.50293C34.5296 1.47754 36.6699 0.964844 39.0625 0.964844C42.7246 0.964844 45.5648 1.84375 47.583 3.60156C49.6175 5.35938 50.6348 7.84147 50.6348 11.0479C50.6348 12.8057 50.179 14.596 49.2676 16.4189C48.3561 18.2419 46.7936 20.3659 44.5801 22.791L36.499 31.3115H51.7822V37ZM79.2969 10.9014C79.2969 12.6266 78.8656 14.1566 78.0029 15.4912C77.1403 16.8258 75.9521 17.8919 74.4385 18.6895C76.1637 19.5195 77.5309 20.667 78.54 22.1318C79.5492 23.5804 80.0537 25.2894 80.0537 27.2588C80.0537 30.4163 78.9795 32.9147 76.8311 34.7539C74.6826 36.5768 71.7611 37.4883 68.0664 37.4883C64.3717 37.4883 61.4421 36.5687 59.2773 34.7295C57.1126 32.8903 56.0303 30.4001 56.0303 27.2588C56.0303 25.2894 56.5348 23.5723 57.5439 22.1074C58.5531 20.6426 59.9121 19.5033 61.6211 18.6895C60.1074 17.8919 58.9193 16.8258 58.0566 15.4912C57.2103 14.1566 56.7871 12.6266 56.7871 10.9014C56.7871 7.87402 57.7962 5.46517 59.8145 3.6748C61.8327 1.86816 64.5752 0.964844 68.042 0.964844C71.4925 0.964844 74.2269 1.86003 76.2451 3.65039C78.2796 5.42448 79.2969 7.84147 79.2969 10.9014ZM72.9736 26.7461C72.9736 25.1999 72.526 23.9629 71.6309 23.0352C70.7357 22.1074 69.5312 21.6436 68.0176 21.6436C66.5202 21.6436 65.3239 22.1074 64.4287 23.0352C63.5335 23.9466 63.0859 25.1836 63.0859 26.7461C63.0859 28.2598 63.5254 29.4805 64.4043 30.4082C65.2832 31.3359 66.5039 31.7998 68.0664 31.7998C69.5964 31.7998 70.7926 31.3522 71.6553 30.457C72.5342 29.5618 72.9736 28.3249 72.9736 26.7461ZM72.2412 11.2432C72.2412 9.8597 71.875 8.75293 71.1426 7.92285C70.4102 7.0765 69.3766 6.65332 68.042 6.65332C66.7236 6.65332 65.6982 7.06022 64.9658 7.87402C64.2334 8.68783 63.8672 9.81087 63.8672 11.2432C63.8672 12.6592 64.2334 13.7985 64.9658 14.6611C65.6982 15.5238 66.7318 15.9551 68.0664 15.9551C69.401 15.9551 70.4264 15.5238 71.1426 14.6611C71.875 13.7985 72.2412 12.6592 72.2412 11.2432Z" fill="#293145"/>
<path d="M1.26953 3.78125H6.57227C7.65951 3.78125 8.59375 3.94401 9.375 4.26953C10.1628 4.59505 10.7682 5.07682 11.1914 5.71484C11.6146 6.35286 11.8262 7.13737 11.8262 8.06836C11.8262 8.83008 11.696 9.48438 11.4355 10.0312C11.1816 10.5716 10.8203 11.0241 10.3516 11.3887C9.88932 11.7467 9.3457 12.0332 8.7207 12.248L7.79297 12.7363H3.18359L3.16406 10.4512H6.5918C7.10612 10.4512 7.53255 10.36 7.87109 10.1777C8.20964 9.99544 8.46354 9.74154 8.63281 9.41602C8.80859 9.09049 8.89648 8.71289 8.89648 8.2832C8.89648 7.82747 8.81185 7.43359 8.64258 7.10156C8.47331 6.76953 8.21615 6.51562 7.87109 6.33984C7.52604 6.16406 7.0931 6.07617 6.57227 6.07617H4.19922V18H1.26953V3.78125ZM9.21875 18L5.97656 11.6621L9.07227 11.6426L12.3535 17.8633V18H9.21875ZM19.6582 1.52539V4.40625H18.1348V1.52539H19.6582ZM19.4727 17.4727V20.0996H17.9492V17.4727H19.4727ZM20.5469 14.2695C20.5469 13.8984 20.4785 13.5827 20.3418 13.3223C20.2116 13.0618 19.9967 12.8307 19.6973 12.6289C19.4043 12.4271 19.0072 12.2318 18.5059 12.043C17.6595 11.7174 16.9141 11.3724 16.2695 11.0078C15.6315 10.6367 15.1335 10.1777 14.7754 9.63086C14.4173 9.07747 14.2383 8.3776 14.2383 7.53125C14.2383 6.72396 14.4303 6.02409 14.8145 5.43164C15.1986 4.83919 15.7292 4.38346 16.4062 4.06445C17.0898 3.73893 17.8841 3.57617 18.7891 3.57617C19.4792 3.57617 20.1042 3.68034 20.6641 3.88867C21.224 4.09049 21.7057 4.38997 22.1094 4.78711C22.513 5.17773 22.8223 5.65625 23.0371 6.22266C23.252 6.78906 23.3594 7.43685 23.3594 8.16602H20.5566C20.5566 7.77539 20.5143 7.43034 20.4297 7.13086C20.3451 6.83138 20.2214 6.58073 20.0586 6.37891C19.9023 6.17708 19.7135 6.02734 19.4922 5.92969C19.2708 5.82552 19.0267 5.77344 18.7598 5.77344C18.3626 5.77344 18.0371 5.85156 17.7832 6.00781C17.5293 6.16406 17.3438 6.37565 17.2266 6.64258C17.1159 6.90299 17.0605 7.20247 17.0605 7.54102C17.0605 7.87305 17.1191 8.16276 17.2363 8.41016C17.36 8.65755 17.5716 8.88542 17.8711 9.09375C18.1706 9.29557 18.5807 9.50391 19.1016 9.71875C19.9479 10.0443 20.6901 10.3958 21.3281 10.7734C21.9661 11.151 22.4642 11.6133 22.8223 12.1602C23.1803 12.707 23.3594 13.4036 23.3594 14.25C23.3594 15.0898 23.1641 15.806 22.7734 16.3984C22.3828 16.9844 21.8359 17.4336 21.1328 17.7461C20.4297 18.0521 19.6159 18.2051 18.6914 18.2051C18.0924 18.2051 17.4967 18.127 16.9043 17.9707C16.3118 17.8079 15.7747 17.5475 15.293 17.1895C14.8112 16.8314 14.4271 16.3561 14.1406 15.7637C13.8542 15.1647 13.7109 14.429 13.7109 13.5566H16.5234C16.5234 14.0319 16.5853 14.429 16.709 14.748C16.8327 15.0605 16.9954 15.3112 17.1973 15.5C17.4056 15.6823 17.64 15.8125 17.9004 15.8906C18.1608 15.9688 18.4245 16.0078 18.6914 16.0078C19.1081 16.0078 19.4499 15.9329 19.7168 15.7832C19.9902 15.6335 20.1953 15.4284 20.332 15.168C20.4753 14.901 20.5469 14.6016 20.5469 14.2695Z" fill="#293145"/>
</svg>
